<?xml version="1.0" encoding="UTF-8"?>
<svg width="130px" height="60px" viewBox="0 0 130 60" version="1.1" xmlns="http://www.w3.org/2000/svg" xmlns:xlink="http://www.w3.org/1999/xlink">
    <defs>
        <linearGradient x1="-305.566406%" y1="54.2509973%" x2="169.433594%" y2="54.2509973%" id="linearGradient-1">
            <stop stop-color="#2550F5" offset="0%"></stop>
            <stop stop-color="#5041EC" offset="46.2349879%"></stop>
            <stop stop-color="#258EF5" offset="97.9169379%"></stop>
            <stop stop-color="#2589F5" offset="100%"></stop>
        </linearGradient>
    </defs>
    <g id="Symbols" stroke="none" stroke-width="1" fill="none" fill-rule="evenodd">
        <g id="Components-/-Logos-/-logo">
            <rect id="bounds" fill-opacity="0" fill="#FF71FF" x="0" y="0" width="130" height="60"></rect>
            <g id="logo" transform="translate(0.000000, 2.000000)">
                <path d="M53.3246187,35.5581395 L53.3246187,20.2093023 L50.0392156,20.2093023 L50.0392156,26.3488372 L43.2156862,26.3488372 L43.2156862,20.2093023 L39.957437,20.2093023 L39.957437,35.5581395 L43.2156862,35.5581395 L43.2156862,29.1627908 L50.0392156,29.1627908 L50.0392156,35.5581397 L53.3246187,35.5581395 L53.3246187,35.5581395 Z M62.6712383,20.2093023 C58.0310725,20.2093023 54.8409586,23.1159622 54.8409586,27.8837209 C54.8409586,32.6514796 58.0310725,35.5581395 62.6712383,35.5581395 C67.311404,35.5581395 70.5015179,32.6514796 70.5015179,27.8837209 C70.5015179,23.1159622 67.311404,20.2093023 62.6712383,20.2093023 L62.6712383,20.2093023 Z M67.4771242,27.8938857 C67.4771242,30.5367319 65.6277511,32.4883721 62.8017429,32.4883721 C60.0380731,32.4883721 58.1263617,30.5570615 58.1263617,27.8938857 C58.1263617,25.3120283 60.0380731,23.2790698 62.8017429,23.2790698 C65.6277511,23.2790698 67.4771242,25.2916988 67.4771242,27.8938857 L67.4771242,27.8938857 L67.4771242,27.8938857 Z M71.7734205,20.2093023 L71.7734205,35.5581395 L82.1350762,35.5581395 L82.3877996,32.3604651 L74.9324619,32.3604651 L74.9324619,20.2093023 L71.7734205,20.2093023 L71.7734205,20.2093023 Z M94.5185185,32.3604651 L86.9368192,32.3604651 L86.9368192,29.1627907 L93.7603486,29.1627907 L93.7603486,26.2209302 L86.9368192,26.2209302 L86.9368192,23.4069767 L94.6448802,23.4069767 L94.6448802,23.1511628 L94.6448802,20.2093023 L83.6514161,20.2093023 L83.6514161,35.5581395 L94.5185185,35.5581395 L94.5185185,32.3604651 L94.5185185,32.3604651 Z M102.858388,35.5581395 L102.858388,20.2093023 L96.7930283,20.2093023 L97.0457516,23.4069767 L99.0675381,23.4069767 L99.0675381,35.5581395 L102.858388,35.5581395 L102.858388,35.5581395 Z M115.882727,25.8271176 L115.848044,26.3537322 C115.792577,27.1959136 115.357571,28.4472514 114.876845,29.1424014 L110.440087,35.5581395 L106.649237,35.5581395 L109.853769,30.6976744 L109.430505,30.6976744 C106.77582,30.6976744 104.627451,28.5216012 104.627451,25.8372788 L104.627451,25.580229 C104.627451,22.6155468 107.003291,20.2093024 109.934038,20.2093024 L110.691198,20.2093024 C113.765944,20.2093023 116.08707,22.7244839 115.882727,25.8271176 Z M110.250545,27.8837209 C111.541616,27.8837209 112.588235,26.8529347 112.588235,25.5813953 C112.588235,24.309856 111.541616,23.2790698 110.250545,23.2790698 C108.959474,23.2790698 107.912854,24.309856 107.912854,25.5813953 C107.912854,26.8529347 108.959474,27.8837209 110.250545,27.8837209 Z" id="Hole19" fill="#000000"></path>
                <g id="icon" fill="url(#linearGradient-1)">
                    <path d="M27.8700926,14.7873027 L29.3808588,12.6392591 C32.7349501,7.99301295 36.2314667,3.21755483 36.4831186,2.93810836 C36.9952923,2.369986 37.1998069,0.768937207 37.1486149,0.304133128 C37.1217518,0.0580151383 37.0229157,0.000331234391 36.9359906,0.000331234391 C36.8584423,0.000331234391 36.4314197,-0.0327408705 35.8916226,0.562044272 C35.4909564,1.00403116 35.5099633,1.5439525 35.5099633,1.5439525 L35.5099633,3.05732177 L27.3538901,14.3472626 C24.4937198,12.0072684 20.8528687,10.607429 16.8951551,10.607429 C7.51097369,10.607429 0,18.0780437 0,27.4318442 C0,36.5719081 7.55397729,44 16.8951551,44 C26.0216927,44 33.5326663,36.5293853 33.5326663,27.4318442 C33.5326663,22.3858075 31.3391154,17.8676613 27.8700926,14.7873027 Z M26.238529,17.1436298 C28.9823407,19.6940268 30.7047555,23.3536718 30.7047555,27.4276634 C30.7047555,30.99233 29.3025761,34.2613481 27.0200762,36.7135954 C26.941742,35.2387253 26.7143332,33.3216121 26.5470509,33.0967915 C26.2401521,32.6840312 25.8303625,31.8031339 25.8303625,31.8031339 C24.9603515,28.7051237 21.9438235,25.0379656 21.9438235,25.0379656 C21.9438235,25.0379656 21.6838086,24.6241797 21.9438235,24.4177996 C22.2038384,24.2109066 22.2981129,23.3848731 22.2981129,23.0749183 C22.2981129,22.9305803 22.3647639,22.708305 22.4359765,22.5114106 L26.238529,17.1436298 Z M25.6796442,16.6512898 L21.7818844,22.0430173 C21.1726486,21.5559088 19.7973065,20.7737151 19.0056041,20.4391484 C18.8276991,20.3642875 18.6497942,20.335061 18.4802523,20.335061 C17.8694959,20.335061 17.368473,20.7162875 17.368473,20.7162875 C17.368473,20.7162875 15.5270807,22.5052577 15.2538876,22.7808585 C15.0481058,22.9880079 14.8446049,23.3120632 14.3478902,23.3120632 C14.1854442,23.3120632 13.9915734,23.2766837 13.7553805,23.1923371 C12.799965,22.8480282 12.3285929,21.7433174 11.3050059,20.9172839 C10.8285652,20.5332373 10.3848166,20.4304317 10.0462396,20.4304317 C9.65647063,20.4304317 9.40659273,20.5663094 9.40659273,20.5663094 C9.40659273,20.5663094 7.59637181,21.2492868 7.04314315,22.1371062 C6.86042311,22.4301404 6.9407591,22.816238 7.29884985,23.1774674 C7.65744744,23.5389532 7.70863946,24.0037573 7.60625542,24.2619248 C7.50387137,24.519836 7.02945815,25.036171 7.02945815,25.036171 C7.02945815,25.036171 7.26260995,25.929887 7.87209914,25.929887 C7.9177158,25.929887 7.96561329,25.9247595 8.01553818,25.9139918 L8.68103449,25.3461258 L8.99654969,25.4097063 L10.1144112,26.2254849 C10.1144112,26.2254849 10.5786873,26.5885089 10.7799075,26.5885089 L11.7013639,26.5885089 C11.7013639,26.5885089 12.0087695,26.7159263 11.7528094,26.9740938 C11.4965958,27.2322613 10.8815312,27.810895 10.8310995,28.018557 C10.7809212,28.2267318 10.5242008,29.05738 10.8822915,29.5734587 C11.2408891,30.0900501 12.6230738,31.1773276 14.0564504,31.7969809 C15.4898271,32.4161215 15.6434032,33.037313 15.6945952,33.2439496 C15.7457872,33.4503298 16.1553234,35.000104 16.7184357,35.3615898 C17.1046269,35.6093212 16.3958014,39.1367774 15.9183707,41.115613 C8.58455979,40.6277077 2.8279108,34.6633122 2.8279108,27.4276634 C2.8279108,19.6622268 9.06406899,13.4595776 16.8909517,13.4595776 C20.22563,13.4595776 23.2893296,14.6564466 25.6796442,16.6512898 Z" id="Imported-Layers"></path>
                </g>
            </g>
        </g>
    </g>
</svg>